<svg width="16" height="12" viewBox="0 0 16 12" fill="none" xmlns="http://www.w3.org/2000/svg">
<path fill-rule="evenodd" clip-rule="evenodd" d="M14 1H2C1.44772 1 1 1.44772 1 2V10C1 10.5523 1.44772 11 2 11H14C14.5523 11 15 10.5523 15 10V2C15 1.44772 14.5523 1 14 1ZM2 0C0.895431 0 0 0.895431 0 2V10C0 11.1046 0.895431 12 2 12H14C15.1046 12 16 11.1046 16 10V2C16 0.895431 15.1046 0 14 0H2Z" fill="#45494D"/>
<path d="M7.6912 6.89308C7.87251 7.03553 8.12772 7.03553 8.30903 6.89308L14.947 1.67752C14.8308 1.336 14.5349 1.07754 14.1721 1.01465L8.00011 5.86404L1.82816 1.01465C1.46529 1.07754 1.16947 1.336 1.05322 1.67752L7.6912 6.89308Z" fill="#45494D"/>
</svg>
